<?xml version="1.0" encoding="UTF-8"?>
<svg width="15px" height="15px" viewBox="0 0 15 15" version="1.1" xmlns="http://www.w3.org/2000/svg" xmlns:xlink="http://www.w3.org/1999/xlink">
    <title>icon/flat/赞 copy</title>
    <defs>
        <path d="M12.1614408,9.02831361e-05 C12.8834593,-0.00785021403 13.501143,0.508846915 13.6094065,1.21141714 L14.6085029,7.62383494 C14.6722539,8.03718272 14.5483379,8.45722923 14.2695765,8.77271625 C13.9908151,9.08820326 13.5853354,9.26729818 13.1605372,9.26256393 L9.06279423,9.26256393 L9.06279423,12.1125274 C9.06279423,13.2930209 8.09037974,14.25 6.89084567,14.25 L3.99491426,7.8375822 L3.99491426,9.02831361e-05 L12.1614408,9.02831361e-05 Z M2.80742179,0.000182664724 L2.80742179,7.8375822 L1.82296571,7.8375822 C1.02327633,7.8375822 0.375,7.19959615 0.375,6.41260047 L0.375,6.41260047 L0.375,1.4251644 C0.375,0.638168718 1.02327633,0.000182664724 1.82296571,0.000182664724 L1.82296571,0.000182664724 L2.80742179,0.000182664724 Z" id="path-1"></path>
    </defs>
    <g id="Desk" stroke="none" stroke-width="1" fill="none" fill-rule="evenodd">
        <g id="赞2" transform="translate(7.500000, 7.500000) scale(-1, 1) rotate(-180.000000) translate(-7.500000, -7.500000) translate(0.000000, -0.000000)">
            <mask id="mask-2" fill="white">
                <use xlink:href="#path-1"></use>
            </mask>
            <use id="形状结合备份" fill="#3174E0" transform="translate(7.499955, 7.125000) scale(-1, -1) translate(-7.499955, -7.125000) " xlink:href="#path-1"></use>
        </g>
    </g>
</svg>