<?xml version="1.0" encoding="UTF-8"?>
<svg width="44px" height="44px" viewBox="0 0 44 44" version="1.1" xmlns="http://www.w3.org/2000/svg" xmlns:xlink="http://www.w3.org/1999/xlink">
    <!-- Generator: Sketch 62 (91390) - https://sketch.com -->
    <title>icon/发送</title>
    <desc>Created with Sketch.</desc>
    <defs>
        <path d="M35.5677818,8.175 C35.9142818,8.4235 36.0507818,8.7595 35.9877818,9.1725 L31.9872818,33.172 C31.9347818,33.473 31.7667818,33.7075 31.4867818,33.8755 C31.3432818,33.956 31.1787818,34.0015 31.0037818,34.0015 C30.8882818,34.0015 30.7622818,33.9735 30.6292818,33.921 L23.5522818,31.03 L19.7687818,35.643 C19.5797818,35.8845 19.3242818,36 19.0022818,36 C18.8692818,36 18.7537818,35.979 18.6557818,35.937 C18.4597818,35.8635 18.2987818,35.7445 18.1797818,35.5695 C18.0607818,35.398 17.9977818,35.209 17.9977818,34.999 L17.9977818,29.5495 L31.4972818,13.0015 L14.7952818,27.4565 L8.62478175,24.926 C8.23978175,24.7825 8.02978175,24.4955 8.00178175,24.065 C7.98078175,23.6485 8.14528175,23.3405 8.50228175,23.141 L34.5002818,8.14 C34.6577818,8.0455 34.8222818,8 35.0007818,8 C35.2107818,8 35.3997818,8.0595 35.5677818,8.175 Z" id="path-1"></path>
    </defs>
    <g id="icon/发送" stroke="none" stroke-width="1" fill="none" fill-rule="evenodd">
        <mask id="mask-2" fill="white">
            <use xlink:href="#path-1"></use>
        </mask>
        <use id="路径" fill="#FFA500" fill-rule="nonzero" transform="translate(22.001331, 22.000000) rotate(12.000000) translate(-22.001331, -22.000000) " xlink:href="#path-1"></use>
        <g id="color/橙" mask="url(#mask-2)" fill="">
            <rect id="Avatar" x="0" y="0" width="44" height="44"></rect>
        </g>
    </g>
</svg>