<?xml version="1.0" encoding="UTF-8"?>
<svg width="15px" height="15px" viewBox="0 0 15 15" version="1.1" xmlns="http://www.w3.org/2000/svg" xmlns:xlink="http://www.w3.org/1999/xlink">
    <title>icon/line/赞备份 2 copy</title>
    <defs>
        <path d="M11.7935702,-2.60528996e-06 C12.7307116,-0.0102261874 13.5405708,0.667263474 13.6831694,1.59264894 L14.6032517,7.49793237 C14.6876169,8.04493331 14.5239777,8.59963191 14.1568112,9.01517103 L14.0906746,9.08624595 C13.7291432,9.45524829 13.2291952,9.66217285 12.7075278,9.65635902 L9.50181905,9.65673917 L9.50203548,11.7188769 C9.50203548,13.1188731 8.35254827,14.2501142 6.93904387,14.2501142 C6.71796743,14.2501142 6.51739009,14.1206143 6.42639794,13.9191318 L3.90806905,8.34288323 L2.27123012,8.34378568 C1.22600606,8.34378568 0.375069046,7.50635584 0.375069046,6.46879419 L0.375069046,1.87507397 C0.375069046,0.837512333 1.22600606,8.2483554e-05 2.27123012,8.2483554e-05 L11.7935702,-2.60528996e-06 Z M11.799756,1.12503138 L4.83419405,1.12503138 L4.83419405,7.66061417 L7.28331905,13.0842392 L7.29908673,13.0807165 C7.92011908,12.9242401 8.37703548,12.3724549 8.37703548,11.7188769 L8.37703548,9.09389395 C8.37703548,8.78323378 8.62887531,8.53139395 8.93953548,8.53139395 L12.7137963,8.53139395 C12.9483211,8.53397273 13.1655098,8.43804344 13.3137615,8.27026015 C13.4601061,8.10463531 13.5247348,7.88555911 13.4915305,7.6702699 L12.5714369,1.76491339 L12.5602199,1.70735425 C12.479777,1.36707543 12.1661462,1.12105073 11.799756,1.12503138 Z M3.70919405,1.12508248 L2.27123012,1.12508248 C1.84333283,1.12508248 1.50006905,1.46289755 1.50006905,1.87507397 L1.50006905,6.46879419 L1.50217243,6.52451441 C1.53144971,6.91098312 1.86278271,7.21878568 2.27123012,7.21878568 L3.70919405,7.21887077 L3.70919405,1.12508248 Z" id="path-1"></path>
    </defs>
    <g id="Desk" stroke="none" stroke-width="1" fill="none" fill-rule="evenodd">
        <g id="icon/line/赞备份-2-copy" transform="translate(7.500000, 7.500000) scale(1, -1) translate(-7.500000, -7.500000) ">
            <mask id="mask-2" fill="white">
                <use xlink:href="#path-1"></use>
            </mask>
            <use id="形状结合" fill="#333333" transform="translate(7.500035, 7.124999) scale(-1, -1) translate(-7.500035, -7.124999) " xlink:href="#path-1"></use>
        </g>
    </g>
</svg>